<svg width="58" height="27" viewBox="0 0 58 27" fill="none" xmlns="http://www.w3.org/2000/svg">
<path fill-rule="evenodd" clip-rule="evenodd" d="M6.85327 9.5C6.85327 6.73858 9.09185 4.5 11.8533 4.5C14.6147 4.5 16.8533 6.73858 16.8533 9.5C16.8533 12.2614 14.6147 14.5 11.8533 14.5C9.09185 14.5 6.85327 12.2614 6.85327 9.5ZM11.8533 12.5C10.1964 12.5 8.85327 11.1569 8.85327 9.5C8.85327 7.84315 10.1964 6.5 11.8533 6.5C13.5101 6.5 14.8533 7.84315 14.8533 9.5C14.8533 11.1569 13.5101 12.5 11.8533 12.5Z" fill="white"/>
<path d="M5 13.6294C6.25216 15.7031 8.4189 17.1624 10.9414 17.4486V19.5H8.85327V21.5H14.8533V19.5H12.9414V17.4266C16.8449 16.8958 19.8532 13.5492 19.8532 9.50001C19.8532 7.93638 19.4046 6.47752 18.6291 5.24512L16.9253 6.29326C17.513 7.22084 17.8532 8.32069 17.8532 9.50001C17.8532 12.8137 15.167 15.5 11.8532 15.5C9.66611 15.5 7.75231 14.3298 6.70381 12.5813L5 13.6294Z" fill="white"/>
<path d="M39.8906 6H43.75V16.3203C43.75 17.513 43.4661 18.5521 42.8984 19.4375C42.3307 20.3177 41.5391 21 40.5234 21.4844C39.5078 21.9635 38.3281 22.2031 36.9844 22.2031C35.625 22.2031 34.4375 21.9635 33.4219 21.4844C32.4063 21 31.6172 20.3177 31.0547 19.4375C30.4922 18.5521 30.2109 17.513 30.2109 16.3203V6H34.0781V15.9844C34.0781 16.5365 34.1979 17.0286 34.4375 17.4609C34.6823 17.8932 35.0234 18.2318 35.4609 18.4766C35.8984 18.7214 36.4063 18.8438 36.9844 18.8438C37.5625 18.8438 38.0677 18.7214 38.5 18.4766C38.9375 18.2318 39.2786 17.8932 39.5234 17.4609C39.7682 17.0286 39.8906 16.5365 39.8906 15.9844V6ZM46.2051 22V19.8203L51.7676 13.0469V12.9687H46.4004V10H56.3223V12.3906L51.166 18.9531V19.0312H56.5098V22H46.2051Z" fill="white"/>
</svg>
