<svg width="454" height="549" viewBox="0 0 454 549" fill="none" xmlns="http://www.w3.org/2000/svg">
<g filter="url(#filter0_d_7_5390)">
<rect x="74.4883" y="30.1543" width="305" height="400" rx="10" fill="white"/>
</g>
<path d="M163.982 140.392C163.984 140.393 163.987 140.393 163.988 140.391C168.814 134.766 175.374 135.663 179.576 140.394L182.136 143.465C182.782 144.189 183.636 144.66 184.555 144.82C185.251 144.941 185.953 144.76 186.628 144.552L190.167 143.461C196.377 142.083 202.014 146.879 202.014 154.324V157.127C202.148 158.659 203.439 159.699 204.774 160.37L208.89 162.152C214.841 165.159 216.328 172.297 211.994 178.292L210.759 179.971C209.655 181.517 209.883 183.549 210.984 185.099L212.215 186.884C216.697 192.594 214.168 200.429 207.834 203.168L204.294 204.696C202.959 205.275 202.438 206.267 202.19 207.739L201.941 212.531C201.791 213.869 201.385 215.163 200.747 216.337C200.108 217.511 199.25 218.542 198.223 219.369C197.196 220.197 196.02 220.804 194.763 221.156C193.507 221.508 192.195 221.597 190.905 221.419L185.513 219.926C184.216 219.737 182.605 220.18 181.742 221.583L179.797 224.336C174.967 229.971 168.453 229.036 165.165 225.74L161.578 221.24C160.636 220.298 159.449 219.491 158.031 220.048L152.604 221.583C148.119 222.24 142.841 218.673 141.996 214.07L141.371 207.406C141.246 206.723 140.965 206.081 140.552 205.532C140.14 204.983 139.607 204.544 138.998 204.25L135.189 202.893C129.462 200.132 127.541 193.444 130.832 187.859L132.978 184.788C133.4 184.071 133.615 183.243 133.597 182.403C133.578 181.563 133.328 180.746 132.874 180.049L131.27 177.703C126.74 171.026 129.873 163.555 136.59 161.32L138.07 160.823C139.705 160.281 141.285 158.874 141.42 157.102L141.751 152.799C142.286 145.822 148.444 141.808 154.912 143.847L157.01 144.508C159.028 145.322 160.612 144.629 161.712 143.383L163.976 140.394C163.978 140.392 163.98 140.391 163.982 140.392Z" fill="url(#paint0_linear_7_5390)"/>
<path d="M163.982 140.392C163.984 140.393 163.987 140.393 163.988 140.391C168.814 134.766 175.374 135.663 179.576 140.394L182.136 143.465C182.782 144.189 183.636 144.66 184.555 144.82C185.251 144.941 185.953 144.76 186.628 144.552L190.167 143.461C196.377 142.083 202.014 146.879 202.014 154.324V157.127C202.148 158.659 203.439 159.699 204.774 160.37L208.89 162.152C214.841 165.159 216.328 172.297 211.994 178.292L210.759 179.971C209.655 181.517 209.883 183.549 210.984 185.099L212.215 186.884C216.697 192.594 214.168 200.429 207.834 203.168L204.294 204.696C202.959 205.275 202.438 206.267 202.19 207.739L201.941 212.531C201.791 213.869 201.385 215.163 200.747 216.337C200.108 217.511 199.25 218.542 198.223 219.369C197.196 220.197 196.02 220.804 194.763 221.156C193.507 221.508 192.195 221.597 190.905 221.419L185.513 219.926C184.216 219.737 182.605 220.18 181.742 221.583L179.797 224.336C174.967 229.971 168.453 229.036 165.165 225.74L161.578 221.24C160.636 220.298 159.449 219.491 158.031 220.048L152.604 221.583C148.119 222.24 142.841 218.673 141.996 214.07L141.371 207.406C141.246 206.723 140.965 206.081 140.552 205.532C140.14 204.983 139.607 204.544 138.998 204.25L135.189 202.893C129.462 200.132 127.541 193.444 130.832 187.859L132.978 184.788C133.4 184.071 133.615 183.243 133.597 182.403C133.578 181.563 133.328 180.746 132.874 180.049L131.27 177.703C126.74 171.026 129.873 163.555 136.59 161.32L138.07 160.823C139.705 160.281 141.285 158.874 141.42 157.102L141.751 152.799C142.286 145.822 148.444 141.808 154.912 143.847L157.01 144.508C159.028 145.322 160.612 144.629 161.712 143.383L163.976 140.394C163.978 140.392 163.98 140.391 163.982 140.392Z" fill="url(#paint1_radial_7_5390)"/>
<path d="M163.982 140.392C163.984 140.393 163.987 140.393 163.988 140.391C168.814 134.766 175.374 135.663 179.576 140.394L182.136 143.465C182.782 144.189 183.636 144.66 184.555 144.82C185.251 144.941 185.953 144.76 186.628 144.552L190.167 143.461C196.377 142.083 202.014 146.879 202.014 154.324V157.127C202.148 158.659 203.439 159.699 204.774 160.37L208.89 162.152C214.841 165.159 216.328 172.297 211.994 178.292L210.759 179.971C209.655 181.517 209.883 183.549 210.984 185.099L212.215 186.884C216.697 192.594 214.168 200.429 207.834 203.168L204.294 204.696C202.959 205.275 202.438 206.267 202.19 207.739L201.941 212.531C201.791 213.869 201.385 215.163 200.747 216.337C200.108 217.511 199.25 218.542 198.223 219.369C197.196 220.197 196.02 220.804 194.763 221.156C193.507 221.508 192.195 221.597 190.905 221.419L185.513 219.926C184.216 219.737 182.605 220.18 181.742 221.583L179.797 224.336C174.967 229.971 168.453 229.036 165.165 225.74L161.578 221.24C160.636 220.298 159.449 219.491 158.031 220.048L152.604 221.583C148.119 222.24 142.841 218.673 141.996 214.07L141.371 207.406C141.246 206.723 140.965 206.081 140.552 205.532C140.14 204.983 139.607 204.544 138.998 204.25L135.189 202.893C129.462 200.132 127.541 193.444 130.832 187.859L132.978 184.788C133.4 184.071 133.615 183.243 133.597 182.403C133.578 181.563 133.328 180.746 132.874 180.049L131.27 177.703C126.74 171.026 129.873 163.555 136.59 161.32L138.07 160.823C139.705 160.281 141.285 158.874 141.42 157.102L141.751 152.799C142.286 145.822 148.444 141.808 154.912 143.847L157.01 144.508C159.028 145.322 160.612 144.629 161.712 143.383L163.976 140.394C163.978 140.392 163.98 140.391 163.982 140.392Z" fill="url(#paint2_radial_7_5390)"/>
<path d="M163.982 140.392C163.984 140.393 163.987 140.393 163.988 140.391C168.814 134.766 175.374 135.663 179.576 140.394L182.136 143.465C182.782 144.189 183.636 144.66 184.555 144.82C185.251 144.941 185.953 144.76 186.628 144.552L190.167 143.461C196.377 142.083 202.014 146.879 202.014 154.324V157.127C202.148 158.659 203.439 159.699 204.774 160.37L208.89 162.152C214.841 165.159 216.328 172.297 211.994 178.292L210.759 179.971C209.655 181.517 209.883 183.549 210.984 185.099L212.215 186.884C216.697 192.594 214.168 200.429 207.834 203.168L204.294 204.696C202.959 205.275 202.438 206.267 202.19 207.739L201.941 212.531C201.791 213.869 201.385 215.163 200.747 216.337C200.108 217.511 199.25 218.542 198.223 219.369C197.196 220.197 196.02 220.804 194.763 221.156C193.507 221.508 192.195 221.597 190.905 221.419L185.513 219.926C184.216 219.737 182.605 220.18 181.742 221.583L179.797 224.336C174.967 229.971 168.453 229.036 165.165 225.74L161.578 221.24C160.636 220.298 159.449 219.491 158.031 220.048L152.604 221.583C148.119 222.24 142.841 218.673 141.996 214.07L141.371 207.406C141.246 206.723 140.965 206.081 140.552 205.532C140.14 204.983 139.607 204.544 138.998 204.25L135.189 202.893C129.462 200.132 127.541 193.444 130.832 187.859L132.978 184.788C133.4 184.071 133.615 183.243 133.597 182.403C133.578 181.563 133.328 180.746 132.874 180.049L131.27 177.703C126.74 171.026 129.873 163.555 136.59 161.32L138.07 160.823C139.705 160.281 141.285 158.874 141.42 157.102L141.751 152.799C142.286 145.822 148.444 141.808 154.912 143.847L157.01 144.508C159.028 145.322 160.612 144.629 161.712 143.383L163.976 140.394C163.978 140.392 163.98 140.391 163.982 140.392Z" fill="url(#paint3_radial_7_5390)"/>
<path d="M163.982 140.392C163.984 140.393 163.987 140.393 163.988 140.391C168.814 134.766 175.374 135.663 179.576 140.394L182.136 143.465C182.782 144.189 183.636 144.66 184.555 144.82C185.251 144.941 185.953 144.76 186.628 144.552L190.167 143.461C196.377 142.083 202.014 146.879 202.014 154.324V157.127C202.148 158.659 203.439 159.699 204.774 160.37L208.89 162.152C214.841 165.159 216.328 172.297 211.994 178.292L210.759 179.971C209.655 181.517 209.883 183.549 210.984 185.099L212.215 186.884C216.697 192.594 214.168 200.429 207.834 203.168L204.294 204.696C202.959 205.275 202.438 206.267 202.19 207.739L201.941 212.531C201.791 213.869 201.385 215.163 200.747 216.337C200.108 217.511 199.25 218.542 198.223 219.369C197.196 220.197 196.02 220.804 194.763 221.156C193.507 221.508 192.195 221.597 190.905 221.419L185.513 219.926C184.216 219.737 182.605 220.18 181.742 221.583L179.797 224.336C174.967 229.971 168.453 229.036 165.165 225.74L161.578 221.24C160.636 220.298 159.449 219.491 158.031 220.048L152.604 221.583C148.119 222.24 142.841 218.673 141.996 214.07L141.371 207.406C141.246 206.723 140.965 206.081 140.552 205.532C140.14 204.983 139.607 204.544 138.998 204.25L135.189 202.893C129.462 200.132 127.541 193.444 130.832 187.859L132.978 184.788C133.4 184.071 133.615 183.243 133.597 182.403C133.578 181.563 133.328 180.746 132.874 180.049L131.27 177.703C126.74 171.026 129.873 163.555 136.59 161.32L138.07 160.823C139.705 160.281 141.285 158.874 141.42 157.102L141.751 152.799C142.286 145.822 148.444 141.808 154.912 143.847L157.01 144.508C159.028 145.322 160.612 144.629 161.712 143.383L163.976 140.394C163.978 140.392 163.98 140.391 163.982 140.392Z" fill="url(#paint4_radial_7_5390)"/>
<path d="M163.982 140.392C163.984 140.393 163.987 140.393 163.988 140.391C168.814 134.766 175.374 135.663 179.576 140.394L182.136 143.465C182.782 144.189 183.636 144.66 184.555 144.82C185.251 144.941 185.953 144.76 186.628 144.552L190.167 143.461C196.377 142.083 202.014 146.879 202.014 154.324V157.127C202.148 158.659 203.439 159.699 204.774 160.37L208.89 162.152C214.841 165.159 216.328 172.297 211.994 178.292L210.759 179.971C209.655 181.517 209.883 183.549 210.984 185.099L212.215 186.884C216.697 192.594 214.168 200.429 207.834 203.168L204.294 204.696C202.959 205.275 202.438 206.267 202.19 207.739L201.941 212.531C201.791 213.869 201.385 215.163 200.747 216.337C200.108 217.511 199.25 218.542 198.223 219.369C197.196 220.197 196.02 220.804 194.763 221.156C193.507 221.508 192.195 221.597 190.905 221.419L185.513 219.926C184.216 219.737 182.605 220.18 181.742 221.583L179.797 224.336C174.967 229.971 168.453 229.036 165.165 225.74L161.578 221.24C160.636 220.298 159.449 219.491 158.031 220.048L152.604 221.583C148.119 222.24 142.841 218.673 141.996 214.07L141.371 207.406C141.246 206.723 140.965 206.081 140.552 205.532C140.14 204.983 139.607 204.544 138.998 204.25L135.189 202.893C129.462 200.132 127.541 193.444 130.832 187.859L132.978 184.788C133.4 184.071 133.615 183.243 133.597 182.403C133.578 181.563 133.328 180.746 132.874 180.049L131.27 177.703C126.74 171.026 129.873 163.555 136.59 161.32L138.07 160.823C139.705 160.281 141.285 158.874 141.42 157.102L141.751 152.799C142.286 145.822 148.444 141.808 154.912 143.847L157.01 144.508C159.028 145.322 160.612 144.629 161.712 143.383L163.976 140.394C163.978 140.392 163.98 140.391 163.982 140.392Z" fill="url(#paint5_radial_7_5390)"/>
<path d="M163.982 140.392C163.984 140.393 163.987 140.393 163.988 140.391C168.814 134.766 175.374 135.663 179.576 140.394L182.136 143.465C182.782 144.189 183.636 144.66 184.555 144.82C185.251 144.941 185.953 144.76 186.628 144.552L190.167 143.461C196.377 142.083 202.014 146.879 202.014 154.324V157.127C202.148 158.659 203.439 159.699 204.774 160.37L208.89 162.152C214.841 165.159 216.328 172.297 211.994 178.292L210.759 179.971C209.655 181.517 209.883 183.549 210.984 185.099L212.215 186.884C216.697 192.594 214.168 200.429 207.834 203.168L204.294 204.696C202.959 205.275 202.438 206.267 202.19 207.739L201.941 212.531C201.791 213.869 201.385 215.163 200.747 216.337C200.108 217.511 199.25 218.542 198.223 219.369C197.196 220.197 196.02 220.804 194.763 221.156C193.507 221.508 192.195 221.597 190.905 221.419L185.513 219.926C184.216 219.737 182.605 220.18 181.742 221.583L179.797 224.336C174.967 229.971 168.453 229.036 165.165 225.74L161.578 221.24C160.636 220.298 159.449 219.491 158.031 220.048L152.604 221.583C148.119 222.24 142.841 218.673 141.996 214.07L141.371 207.406C141.246 206.723 140.965 206.081 140.552 205.532C140.14 204.983 139.607 204.544 138.998 204.25L135.189 202.893C129.462 200.132 127.541 193.444 130.832 187.859L132.978 184.788C133.4 184.071 133.615 183.243 133.597 182.403C133.578 181.563 133.328 180.746 132.874 180.049L131.27 177.703C126.74 171.026 129.873 163.555 136.59 161.32L138.07 160.823C139.705 160.281 141.285 158.874 141.42 157.102L141.751 152.799C142.286 145.822 148.444 141.808 154.912 143.847L157.01 144.508C159.028 145.322 160.612 144.629 161.712 143.383L163.976 140.394C163.978 140.392 163.98 140.391 163.982 140.392Z" fill="url(#paint6_radial_7_5390)"/>
<path d="M163.982 140.392C163.984 140.393 163.987 140.393 163.988 140.391C168.814 134.766 175.374 135.663 179.576 140.394L182.136 143.465C182.782 144.189 183.636 144.66 184.555 144.82C185.251 144.941 185.953 144.76 186.628 144.552L190.167 143.461C196.377 142.083 202.014 146.879 202.014 154.324V157.127C202.148 158.659 203.439 159.699 204.774 160.37L208.89 162.152C214.841 165.159 216.328 172.297 211.994 178.292L210.759 179.971C209.655 181.517 209.883 183.549 210.984 185.099L212.215 186.884C216.697 192.594 214.168 200.429 207.834 203.168L204.294 204.696C202.959 205.275 202.438 206.267 202.19 207.739L201.941 212.531C201.791 213.869 201.385 215.163 200.747 216.337C200.108 217.511 199.25 218.542 198.223 219.369C197.196 220.197 196.02 220.804 194.763 221.156C193.507 221.508 192.195 221.597 190.905 221.419L185.513 219.926C184.216 219.737 182.605 220.18 181.742 221.583L179.797 224.336C174.967 229.971 168.453 229.036 165.165 225.74L161.578 221.24C160.636 220.298 159.449 219.491 158.031 220.048L152.604 221.583C148.119 222.24 142.841 218.673 141.996 214.07L141.371 207.406C141.246 206.723 140.965 206.081 140.552 205.532C140.14 204.983 139.607 204.544 138.998 204.25L135.189 202.893C129.462 200.132 127.541 193.444 130.832 187.859L132.978 184.788C133.4 184.071 133.615 183.243 133.597 182.403C133.578 181.563 133.328 180.746 132.874 180.049L131.27 177.703C126.74 171.026 129.873 163.555 136.59 161.32L138.07 160.823C139.705 160.281 141.285 158.874 141.42 157.102L141.751 152.799C142.286 145.822 148.444 141.808 154.912 143.847L157.01 144.508C159.028 145.322 160.612 144.629 161.712 143.383L163.976 140.394C163.978 140.392 163.98 140.391 163.982 140.392Z" fill="url(#paint7_radial_7_5390)"/>
<path d="M163.982 140.392C163.984 140.393 163.987 140.393 163.988 140.391C168.814 134.766 175.374 135.663 179.576 140.394L182.136 143.465C182.782 144.189 183.636 144.66 184.555 144.82C185.251 144.941 185.953 144.76 186.628 144.552L190.167 143.461C196.377 142.083 202.014 146.879 202.014 154.324V157.127C202.148 158.659 203.439 159.699 204.774 160.37L208.89 162.152C214.841 165.159 216.328 172.297 211.994 178.292L210.759 179.971C209.655 181.517 209.883 183.549 210.984 185.099L212.215 186.884C216.697 192.594 214.168 200.429 207.834 203.168L204.294 204.696C202.959 205.275 202.438 206.267 202.19 207.739L201.941 212.531C201.791 213.869 201.385 215.163 200.747 216.337C200.108 217.511 199.25 218.542 198.223 219.369C197.196 220.197 196.02 220.804 194.763 221.156C193.507 221.508 192.195 221.597 190.905 221.419L185.513 219.926C184.216 219.737 182.605 220.18 181.742 221.583L179.797 224.336C174.967 229.971 168.453 229.036 165.165 225.74L161.578 221.24C160.636 220.298 159.449 219.491 158.031 220.048L152.604 221.583C148.119 222.24 142.841 218.673 141.996 214.07L141.371 207.406C141.246 206.723 140.965 206.081 140.552 205.532C140.14 204.983 139.607 204.544 138.998 204.25L135.189 202.893C129.462 200.132 127.541 193.444 130.832 187.859L132.978 184.788C133.4 184.071 133.615 183.243 133.597 182.403C133.578 181.563 133.328 180.746 132.874 180.049L131.27 177.703C126.74 171.026 129.873 163.555 136.59 161.32L138.07 160.823C139.705 160.281 141.285 158.874 141.42 157.102L141.751 152.799C142.286 145.822 148.444 141.808 154.912 143.847L157.01 144.508C159.028 145.322 160.612 144.629 161.712 143.383L163.976 140.394C163.978 140.392 163.98 140.391 163.982 140.392Z" fill="url(#paint8_radial_7_5390)"/>
<path d="M163.982 140.392C163.984 140.393 163.987 140.393 163.988 140.391C168.814 134.766 175.374 135.663 179.576 140.394L182.136 143.465C182.782 144.189 183.636 144.66 184.555 144.82C185.251 144.941 185.953 144.76 186.628 144.552L190.167 143.461C196.377 142.083 202.014 146.879 202.014 154.324V157.127C202.148 158.659 203.439 159.699 204.774 160.37L208.89 162.152C214.841 165.159 216.328 172.297 211.994 178.292L210.759 179.971C209.655 181.517 209.883 183.549 210.984 185.099L212.215 186.884C216.697 192.594 214.168 200.429 207.834 203.168L204.294 204.696C202.959 205.275 202.438 206.267 202.19 207.739L201.941 212.531C201.791 213.869 201.385 215.163 200.747 216.337C200.108 217.511 199.25 218.542 198.223 219.369C197.196 220.197 196.02 220.804 194.763 221.156C193.507 221.508 192.195 221.597 190.905 221.419L185.513 219.926C184.216 219.737 182.605 220.18 181.742 221.583L179.797 224.336C174.967 229.971 168.453 229.036 165.165 225.74L161.578 221.24C160.636 220.298 159.449 219.491 158.031 220.048L152.604 221.583C148.119 222.24 142.841 218.673 141.996 214.07L141.371 207.406C141.246 206.723 140.965 206.081 140.552 205.532C140.14 204.983 139.607 204.544 138.998 204.25L135.189 202.893C129.462 200.132 127.541 193.444 130.832 187.859L132.978 184.788C133.4 184.071 133.615 183.243 133.597 182.403C133.578 181.563 133.328 180.746 132.874 180.049L131.27 177.703C126.74 171.026 129.873 163.555 136.59 161.32L138.07 160.823C139.705 160.281 141.285 158.874 141.42 157.102L141.751 152.799C142.286 145.822 148.444 141.808 154.912 143.847L157.01 144.508C159.028 145.322 160.612 144.629 161.712 143.383L163.976 140.394C163.978 140.392 163.98 140.391 163.982 140.392Z" fill="url(#paint9_radial_7_5390)"/>
<g filter="url(#filter1_i_7_5390)">
<path d="M171.813 217.422C171.814 217.421 171.816 217.42 171.818 217.42C190.522 217.419 205.686 201.725 205.686 182.364C205.686 162.999 190.52 147.301 171.812 147.301C153.106 147.301 137.94 162.999 137.94 182.364C137.94 201.725 153.105 217.422 171.809 217.424C171.811 217.424 171.812 217.423 171.813 217.422Z" fill="url(#paint10_radial_7_5390)"/>
<path d="M171.813 217.422C171.814 217.421 171.816 217.42 171.818 217.42C190.522 217.419 205.686 201.725 205.686 182.364C205.686 162.999 190.52 147.301 171.812 147.301C153.106 147.301 137.94 162.999 137.94 182.364C137.94 201.725 153.105 217.422 171.809 217.424C171.811 217.424 171.812 217.423 171.813 217.422Z" fill="url(#paint11_radial_7_5390)"/>
<path d="M171.813 217.422C171.814 217.421 171.816 217.42 171.818 217.42C190.522 217.419 205.686 201.725 205.686 182.364C205.686 162.999 190.52 147.301 171.812 147.301C153.106 147.301 137.94 162.999 137.94 182.364C137.94 201.725 153.105 217.422 171.809 217.424C171.811 217.424 171.812 217.423 171.813 217.422Z" fill="url(#paint12_radial_7_5390)"/>
</g>
<path d="M-nan -nanL181.722 160.61C184.496 160.61 187.155 159.47 189.116 157.44C191.077 155.41 192.179 152.657 192.179 149.786C192.179 146.916 191.077 144.163 189.116 142.133C187.155 140.103 184.496 138.963 181.722 138.963C178.949 138.963 176.289 140.103 174.328 142.133C172.367 144.163 171.266 146.916 171.266 149.786C171.266 152.657 172.367 155.41 174.328 157.44C176.289 159.47 178.949 160.61 181.722 160.61L-nan -nanZ" fill="url(#paint13_radial_7_5390)"/>
<path d="M-nan -nanL181.722 160.61C184.496 160.61 187.155 159.47 189.116 157.44C191.077 155.41 192.179 152.657 192.179 149.786C192.179 146.916 191.077 144.163 189.116 142.133C187.155 140.103 184.496 138.963 181.722 138.963C178.949 138.963 176.289 140.103 174.328 142.133C172.367 144.163 171.266 146.916 171.266 149.786C171.266 152.657 172.367 155.41 174.328 157.44C176.289 159.47 178.949 160.61 181.722 160.61L-nan -nanZ" fill="url(#paint14_radial_7_5390)"/>
<g filter="url(#filter2_i_7_5390)">
<path d="M-nan -nanL179.954 137.01C170.75 127.725 156.018 127.883 147.042 137.413C144.798 139.784 143.053 142.611 141.919 145.716C141.867 145.85 141.788 145.97 141.686 146.069C141.585 146.167 141.464 146.242 141.331 146.286C141.199 146.331 141.059 146.345 140.92 146.327C140.782 146.309 140.65 146.26 140.532 146.184C139.799 145.7 139.028 145.281 138.227 144.93C134.802 143.301 130.946 142.915 127.282 143.836C123.619 144.757 120.363 146.93 118.041 150.004C115.72 153.078 114.468 156.873 114.489 160.775C114.509 164.677 115.801 168.458 118.156 171.505C119.726 173.645 121.753 175.378 124.079 176.57C126.405 177.762 128.967 178.38 131.562 178.376H164.474C167.941 178.379 171.358 177.523 174.439 175.879C177.521 174.235 180.177 171.851 182.186 168.927C189.238 159.371 188.486 145.627 179.954 137.01L-nan -nanZ" fill="#D5D4DA"/>
<path d="M-nan -nanL179.954 137.01C170.75 127.725 156.018 127.883 147.042 137.413C144.798 139.784 143.053 142.611 141.919 145.716C141.867 145.85 141.788 145.97 141.686 146.069C141.585 146.167 141.464 146.242 141.331 146.286C141.199 146.331 141.059 146.345 140.92 146.327C140.782 146.309 140.65 146.26 140.532 146.184C139.799 145.7 139.028 145.281 138.227 144.93C134.802 143.301 130.946 142.915 127.282 143.836C123.619 144.757 120.363 146.93 118.041 150.004C115.72 153.078 114.468 156.873 114.489 160.775C114.509 164.677 115.801 168.458 118.156 171.505C119.726 173.645 121.753 175.378 124.079 176.57C126.405 177.762 128.967 178.38 131.562 178.376H164.474C167.941 178.379 171.358 177.523 174.439 175.879C177.521 174.235 180.177 171.851 182.186 168.927C189.238 159.371 188.486 145.627 179.954 137.01L-nan -nanZ" fill="url(#paint15_linear_7_5390)"/>
</g>
<path d="M-nan -nanL179.954 137.01C170.75 127.725 156.018 127.883 147.042 137.413C144.798 139.784 143.053 142.611 141.919 145.716C141.867 145.85 141.788 145.97 141.686 146.069C141.585 146.167 141.464 146.242 141.331 146.286C141.199 146.331 141.059 146.345 140.92 146.327C140.782 146.309 140.65 146.26 140.532 146.184C139.799 145.7 139.028 145.281 138.227 144.93C134.802 143.301 130.946 142.915 127.282 143.836C123.619 144.757 120.363 146.93 118.041 150.004C115.72 153.078 114.468 156.873 114.489 160.775C114.509 164.677 115.801 168.458 118.156 171.505C119.726 173.645 121.753 175.378 124.079 176.57C126.405 177.762 128.967 178.38 131.562 178.376H164.474C167.941 178.379 171.358 177.523 174.439 175.879C177.521 174.235 180.177 171.851 182.186 168.927C189.238 159.371 188.486 145.627 179.954 137.01L-nan -nanZ" fill="url(#paint16_radial_7_5390)"/>
<path d="M-nan -nanL179.954 137.01C170.75 127.725 156.018 127.883 147.042 137.413C144.798 139.784 143.053 142.611 141.919 145.716C141.867 145.85 141.788 145.97 141.686 146.069C141.585 146.167 141.464 146.242 141.331 146.286C141.199 146.331 141.059 146.345 140.92 146.327C140.782 146.309 140.65 146.26 140.532 146.184C139.799 145.7 139.028 145.281 138.227 144.93C134.802 143.301 130.946 142.915 127.282 143.836C123.619 144.757 120.363 146.93 118.041 150.004C115.72 153.078 114.468 156.873 114.489 160.775C114.509 164.677 115.801 168.458 118.156 171.505C119.726 173.645 121.753 175.378 124.079 176.57C126.405 177.762 128.967 178.38 131.562 178.376H164.474C167.941 178.379 171.358 177.523 174.439 175.879C177.521 174.235 180.177 171.851 182.186 168.927C189.238 159.371 188.486 145.627 179.954 137.01L-nan -nanZ" fill="url(#paint17_radial_7_5390)"/>
<path d="M-nan -nanL179.954 137.01C170.75 127.725 156.018 127.883 147.042 137.413C144.798 139.784 143.053 142.611 141.919 145.716C141.867 145.85 141.788 145.97 141.686 146.069C141.585 146.167 141.464 146.242 141.331 146.286C141.199 146.331 141.059 146.345 140.92 146.327C140.782 146.309 140.65 146.26 140.532 146.184C139.799 145.7 139.028 145.281 138.227 144.93C134.802 143.301 130.946 142.915 127.282 143.836C123.619 144.757 120.363 146.93 118.041 150.004C115.72 153.078 114.468 156.873 114.489 160.775C114.509 164.677 115.801 168.458 118.156 171.505C119.726 173.645 121.753 175.378 124.079 176.57C126.405 177.762 128.967 178.38 131.562 178.376H164.474C167.941 178.379 171.358 177.523 174.439 175.879C177.521 174.235 180.177 171.851 182.186 168.927C189.238 159.371 188.486 145.627 179.954 137.01L-nan -nanZ" fill="url(#paint18_radial_7_5390)"/>
<path d="M-nan -nanL179.954 137.01C170.75 127.725 156.018 127.883 147.042 137.413C144.798 139.784 143.053 142.611 141.919 145.716C141.867 145.85 141.788 145.97 141.686 146.069C141.585 146.167 141.464 146.242 141.331 146.286C141.199 146.331 141.059 146.345 140.92 146.327C140.782 146.309 140.65 146.26 140.532 146.184C139.799 145.7 139.028 145.281 138.227 144.93C134.802 143.301 130.946 142.915 127.282 143.836C123.619 144.757 120.363 146.93 118.041 150.004C115.72 153.078 114.468 156.873 114.489 160.775C114.509 164.677 115.801 168.458 118.156 171.505C119.726 173.645 121.753 175.378 124.079 176.57C126.405 177.762 128.967 178.38 131.562 178.376H164.474C167.941 178.379 171.358 177.523 174.439 175.879C177.521 174.235 180.177 171.851 182.186 168.927C189.238 159.371 188.486 145.627 179.954 137.01L-nan -nanZ" fill="url(#paint19_radial_7_5390)"/>
<path d="M208.76 269.41C208.007 269.41 207.34 269.219 206.76 268.836C206.185 268.454 205.734 267.925 205.408 267.251C205.082 266.573 204.92 265.791 204.92 264.905C204.92 264.011 205.082 263.225 205.408 262.547C205.734 261.865 206.185 261.335 206.76 260.956C207.34 260.573 208.007 260.382 208.76 260.382C209.514 260.382 210.179 260.573 210.755 260.956C211.331 261.338 211.781 261.869 212.107 262.547C212.437 263.225 212.601 264.011 212.601 264.905C212.601 265.791 212.439 266.573 212.113 267.251C211.787 267.925 211.334 268.454 210.755 268.836C210.179 269.219 209.514 269.41 208.76 269.41ZM208.76 268.484C209.367 268.484 209.88 268.321 210.3 267.996C210.721 267.67 211.039 267.236 211.255 266.694C211.474 266.153 211.584 265.556 211.584 264.905C211.584 264.253 211.474 263.655 211.255 263.109C211.039 262.564 210.721 262.126 210.3 261.797C209.88 261.467 209.367 261.302 208.76 261.302C208.158 261.302 207.645 261.467 207.221 261.797C206.8 262.126 206.48 262.564 206.26 263.109C206.045 263.655 205.937 264.253 205.937 264.905C205.937 265.556 206.045 266.153 206.26 266.694C206.48 267.236 206.8 267.67 207.221 267.996C207.641 268.321 208.154 268.484 208.76 268.484Z" fill="#321FB9"/>
<path d="M128.694 292.835L129.037 271.241L131.951 271.287L131.608 292.881L128.694 292.835ZM119.502 283.347L119.549 280.433L141.142 280.775L141.096 283.69L119.502 283.347ZM147.916 299.754L147.953 297.419L159.558 284.784C161.074 283.126 162.295 281.707 163.223 280.529C164.151 279.35 164.827 278.258 165.253 277.254C165.689 276.249 165.916 275.201 165.933 274.111C165.954 272.781 165.66 271.617 165.051 270.619C164.453 269.609 163.619 268.818 162.549 268.244C161.478 267.67 160.267 267.372 158.914 267.351C157.483 267.328 156.222 267.615 155.133 268.211C154.056 268.808 153.213 269.636 152.605 270.694C151.997 271.753 151.682 272.975 151.66 274.362L148.61 274.313C148.64 272.382 149.11 270.679 150.02 269.204C150.942 267.719 152.182 266.562 153.741 265.734C155.311 264.907 157.079 264.509 159.044 264.54C160.987 264.571 162.708 265.019 164.205 265.883C165.703 266.737 166.873 267.886 167.714 269.332C168.555 270.777 168.961 272.386 168.933 274.158C168.912 275.442 168.665 276.683 168.192 277.88C167.73 279.077 166.941 280.406 165.827 281.866C164.713 283.325 163.173 285.108 161.208 287.214L152.396 296.74L152.393 296.961L169.658 297.235L169.612 300.098L147.916 299.754ZM178.215 300.235L194.621 268.667L194.625 268.446L176.303 268.155L176.348 265.292L198.011 265.636L197.963 268.635L181.572 300.288L178.215 300.235Z" fill="#321FB9"/>
<path d="M313.76 269.41C313.007 269.41 312.34 269.219 311.76 268.836C311.185 268.454 310.734 267.925 310.408 267.251C310.082 266.573 309.92 265.791 309.92 264.905C309.92 264.011 310.082 263.225 310.408 262.547C310.734 261.865 311.185 261.335 311.76 260.956C312.34 260.573 313.007 260.382 313.76 260.382C314.514 260.382 315.179 260.573 315.755 260.956C316.331 261.338 316.781 261.869 317.107 262.547C317.437 263.225 317.601 264.011 317.601 264.905C317.601 265.791 317.439 266.573 317.113 267.251C316.787 267.925 316.334 268.454 315.755 268.836C315.179 269.219 314.514 269.41 313.76 269.41ZM313.76 268.484C314.367 268.484 314.88 268.321 315.3 267.996C315.721 267.67 316.039 267.236 316.255 266.694C316.474 266.153 316.584 265.556 316.584 264.905C316.584 264.253 316.474 263.655 316.255 263.109C316.039 262.564 315.721 262.126 315.3 261.797C314.88 261.467 314.367 261.302 313.76 261.302C313.158 261.302 312.645 261.467 312.221 261.797C311.8 262.126 311.48 262.564 311.26 263.109C311.045 263.655 310.937 264.253 310.937 264.905C310.937 265.556 311.045 266.153 311.26 266.694C311.48 267.236 311.8 267.67 312.221 267.996C312.641 268.321 313.154 268.484 313.76 268.484Z" fill="#321FB9"/>
<path d="M233.694 292.835L234.037 271.241L236.951 271.287L236.608 292.881L233.694 292.835ZM224.502 283.347L224.549 280.433L246.142 280.775L246.096 283.69L224.502 283.347ZM265.32 300.428C263.173 300.394 261.259 299.978 259.578 299.178C257.898 298.367 256.574 297.261 255.608 295.859C254.641 294.457 254.144 292.852 254.116 291.045L257.337 291.096C257.373 292.37 257.748 293.489 258.46 294.455C259.172 295.41 260.126 296.164 261.322 296.717C262.518 297.259 263.855 297.541 265.332 297.565C266.945 297.59 268.37 297.312 269.607 296.729C270.855 296.146 271.834 295.338 272.543 294.304C273.265 293.258 273.636 292.071 273.657 290.741C273.679 289.332 273.341 288.082 272.642 286.992C271.944 285.901 270.929 285.044 269.598 284.42C268.278 283.797 266.692 283.471 264.84 283.441L262.795 283.409L262.84 280.546L264.885 280.578C266.396 280.602 267.736 280.351 268.903 279.824C270.082 279.285 271.015 278.522 271.701 277.532C272.388 276.543 272.741 275.373 272.763 274.02C272.783 272.736 272.511 271.601 271.948 270.615C271.384 269.629 270.578 268.849 269.53 268.275C268.493 267.702 267.276 267.404 265.879 267.382C264.527 267.361 263.284 267.602 262.151 268.107C261.018 268.612 260.097 269.336 259.389 270.279C258.692 271.223 258.31 272.348 258.244 273.654L255.159 273.605C255.234 271.788 255.759 270.199 256.735 268.839C257.723 267.469 259.018 266.409 260.621 265.662C262.236 264.903 264.014 264.54 265.957 264.57C268.014 264.603 269.786 265.052 271.272 265.916C272.758 266.781 273.9 267.918 274.696 269.329C275.503 270.728 275.893 272.263 275.867 273.933C275.835 275.922 275.269 277.617 274.167 279.021C273.065 280.412 271.595 281.366 269.757 281.883L269.754 282.104C271.974 282.583 273.708 283.599 274.956 285.153C276.216 286.696 276.828 288.575 276.793 290.791C276.763 292.654 276.248 294.323 275.247 295.796C274.247 297.257 272.888 298.406 271.169 299.243C269.463 300.068 267.513 300.463 265.32 300.428ZM295.01 300.899C292.556 300.86 290.47 300.123 288.754 298.686C287.05 297.239 285.753 295.167 284.864 292.47C283.986 289.774 283.577 286.546 283.637 282.785C283.696 279.035 284.207 275.833 285.17 273.177C286.144 270.511 287.512 268.481 289.273 267.088C291.045 265.684 293.147 265.002 295.579 265.04C298.01 265.079 300.084 265.828 301.8 267.287C303.527 268.735 304.829 270.807 305.707 273.503C306.596 276.188 307.011 279.405 306.952 283.155C306.892 286.916 306.375 290.129 305.401 292.796C304.438 295.463 303.076 297.493 301.315 298.886C299.566 300.267 297.464 300.938 295.01 300.899ZM295.055 298.036C297.748 298.079 299.871 296.8 301.424 294.199C302.977 291.587 303.791 287.889 303.867 283.106C303.918 279.924 303.614 277.203 302.957 274.943C302.311 272.671 301.355 270.928 300.09 269.715C298.837 268.501 297.318 267.881 295.534 267.852C292.864 267.81 290.747 269.106 289.182 271.741C287.617 274.364 286.797 278.062 286.721 282.834C286.671 286.015 286.969 288.736 287.615 290.997C288.272 293.257 289.228 294.989 290.482 296.191C291.747 297.393 293.271 298.008 295.055 298.036Z" fill="#321FB9"/>
<rect x="114.488" y="324.631" width="107.243" height="37.378" rx="10" fill="#0F083B" fill-opacity="0.07"/>
<path opacity="0.4" d="M125.681 347.647L125.831 338.194L126.975 338.212L126.901 342.902L127.012 342.904L131.333 338.281L132.828 338.305L128.791 342.507L132.678 347.758L131.294 347.736L128.077 343.29L126.874 344.601L126.825 347.666L125.681 347.647ZM138.082 344.945L138.149 340.753L139.238 340.771L139.126 347.861L138.036 347.843L138.055 346.643L137.982 346.642C137.81 346.999 137.546 347.302 137.191 347.548C136.837 347.792 136.392 347.91 135.856 347.901C135.413 347.894 135.021 347.791 134.679 347.592C134.338 347.389 134.071 347.089 133.881 346.692C133.69 346.292 133.6 345.791 133.609 345.188L133.681 340.682L134.77 340.7L134.7 345.131C134.691 345.648 134.83 346.063 135.114 346.375C135.401 346.687 135.771 346.847 136.224 346.854C136.494 346.859 136.771 346.794 137.053 346.66C137.339 346.526 137.579 346.317 137.774 346.034C137.973 345.751 138.075 345.388 138.082 344.945ZM142.278 343.645L142.21 347.91L141.121 347.892L141.233 340.802L142.286 340.819L142.268 341.927L142.361 341.928C142.532 341.571 142.789 341.286 143.131 341.073C143.473 340.856 143.912 340.752 144.448 340.761C144.928 340.769 145.346 340.874 145.703 341.076C146.06 341.276 146.335 341.576 146.529 341.976C146.723 342.373 146.815 342.873 146.805 343.476L146.734 347.981L145.644 347.964L145.715 343.533C145.724 342.976 145.586 342.54 145.302 342.224C145.017 341.906 144.623 341.743 144.118 341.735C143.77 341.729 143.458 341.799 143.182 341.946C142.909 342.092 142.692 342.309 142.53 342.596C142.368 342.883 142.284 343.232 142.278 343.645ZM151.399 348.203C150.808 348.194 150.289 348.036 149.842 347.731C149.394 347.422 149.047 346.992 148.8 346.44C148.554 345.885 148.436 345.232 148.448 344.481C148.46 343.736 148.598 343.092 148.862 342.549C149.126 342.005 149.488 341.587 149.948 341.296C150.408 341.005 150.937 340.864 151.534 340.873C151.996 340.881 152.359 340.963 152.624 341.122C152.893 341.277 153.096 341.452 153.235 341.648C153.376 341.841 153.486 342 153.564 342.124L153.656 342.126L153.712 338.636L154.801 338.654L154.651 348.107L153.599 348.09L153.616 347.001L153.487 346.999C153.405 347.127 153.288 347.288 153.138 347.483C152.987 347.674 152.773 347.845 152.497 347.994C152.221 348.141 151.855 348.21 151.399 348.203ZM151.563 347.227C152 347.234 152.371 347.126 152.676 346.903C152.981 346.677 153.215 346.362 153.379 345.958C153.542 345.552 153.628 345.08 153.637 344.545C153.645 344.016 153.575 343.551 153.428 343.152C153.28 342.749 153.058 342.435 152.759 342.209C152.461 341.979 152.091 341.861 151.648 341.854C151.186 341.847 150.8 341.959 150.488 342.191C150.18 342.42 149.945 342.735 149.785 343.136C149.628 343.533 149.546 343.981 149.538 344.48C149.53 344.985 149.599 345.444 149.747 345.859C149.897 346.271 150.123 346.601 150.424 346.849C150.727 347.094 151.107 347.22 151.563 347.227ZM161.312 345.313L161.378 341.122L162.468 341.139L162.355 348.229L161.266 348.212L161.285 347.012L161.211 347.011C161.039 347.368 160.776 347.67 160.421 347.917C160.066 348.161 159.621 348.278 159.086 348.27C158.643 348.263 158.25 348.159 157.909 347.96C157.567 347.758 157.301 347.458 157.11 347.061C156.92 346.661 156.829 346.159 156.839 345.556L156.91 341.051L157.999 341.068L157.929 345.5C157.921 346.017 158.059 346.431 158.343 346.743C158.631 347.056 159.001 347.216 159.453 347.223C159.724 347.227 160 347.162 160.283 347.028C160.568 346.894 160.808 346.686 161.004 346.402C161.202 346.119 161.305 345.756 161.312 345.313ZM164.147 348.258L164.16 347.427L168.268 342.321L168.269 342.247L164.373 342.185L164.389 341.17L169.688 341.254L169.674 342.122L165.679 347.192L165.677 347.266L169.721 347.33L169.705 348.346L164.147 348.258ZM175.02 348.43L175.033 347.599L178.208 344.233C178.58 343.839 178.887 343.496 179.129 343.204C179.371 342.909 179.551 342.632 179.669 342.372C179.79 342.11 179.853 341.834 179.857 341.544C179.862 341.212 179.787 340.923 179.631 340.677C179.478 340.432 179.265 340.241 178.994 340.104C178.722 339.967 178.415 339.896 178.073 339.891C177.71 339.885 177.392 339.955 177.119 340.102C176.849 340.245 176.638 340.45 176.486 340.715C176.337 340.981 176.26 341.293 176.254 341.653L175.165 341.636C175.174 341.082 175.309 340.598 175.571 340.184C175.833 339.769 176.186 339.448 176.63 339.222C177.077 338.995 177.575 338.886 178.126 338.894C178.68 338.903 179.169 339.028 179.593 339.269C180.017 339.509 180.348 339.83 180.584 340.231C180.821 340.632 180.936 341.075 180.928 341.561C180.923 341.909 180.854 342.248 180.723 342.578C180.594 342.906 180.373 343.27 180.059 343.671C179.748 344.07 179.317 344.555 178.766 345.128L176.607 347.366L176.606 347.44L181 347.509L180.984 348.525L175.02 348.43ZM186.082 348.735C185.473 348.725 184.932 348.612 184.458 348.395C183.987 348.178 183.615 347.882 183.341 347.505C183.07 347.125 182.926 346.687 182.909 346.191L184.072 346.21C184.092 346.515 184.193 346.78 184.374 347.004C184.555 347.225 184.794 347.399 185.09 347.523C185.387 347.648 185.717 347.713 186.08 347.719C186.486 347.726 186.847 347.66 187.163 347.524C187.48 347.387 187.729 347.194 187.911 346.945C188.094 346.695 188.188 346.404 188.193 346.072C188.198 345.724 188.117 345.417 187.949 345.149C187.781 344.879 187.532 344.666 187.202 344.51C186.872 344.354 186.467 344.272 185.987 344.264L185.23 344.252L185.246 343.237L186.003 343.249C186.379 343.255 186.709 343.192 186.994 343.061C187.282 342.93 187.509 342.743 187.673 342.499C187.84 342.256 187.926 341.968 187.931 341.635C187.936 341.315 187.87 341.036 187.732 340.797C187.594 340.557 187.397 340.37 187.141 340.233C186.887 340.097 186.587 340.026 186.239 340.02C185.913 340.015 185.604 340.07 185.313 340.186C185.025 340.298 184.788 340.465 184.603 340.687C184.418 340.906 184.315 341.172 184.295 341.485L183.187 341.468C183.214 340.973 183.37 340.541 183.656 340.173C183.942 339.802 184.312 339.516 184.768 339.314C185.227 339.112 185.729 339.015 186.273 339.024C186.858 339.033 187.358 339.159 187.772 339.403C188.187 339.643 188.504 339.958 188.722 340.346C188.941 340.734 189.047 341.151 189.04 341.598C189.031 342.13 188.884 342.582 188.598 342.953C188.315 343.324 187.934 343.578 187.455 343.715L187.454 343.789C188.049 343.897 188.511 344.158 188.84 344.572C189.169 344.984 189.329 345.49 189.319 346.09C189.311 346.604 189.164 347.063 188.877 347.468C188.594 347.87 188.21 348.184 187.727 348.41C187.243 348.636 186.695 348.745 186.082 348.735ZM195.33 343.517L195.314 344.532L191.178 344.466L191.194 343.451L195.33 343.517ZM196.701 348.774L196.714 347.943L199.889 344.577C200.261 344.183 200.568 343.84 200.81 343.548C201.052 343.253 201.231 342.976 201.349 342.716C201.471 342.454 201.533 342.178 201.538 341.888C201.543 341.556 201.468 341.267 201.312 341.021C201.159 340.776 200.946 340.585 200.674 340.448C200.403 340.311 200.096 340.24 199.754 340.235C199.391 340.229 199.073 340.299 198.8 340.446C198.53 340.589 198.319 340.794 198.167 341.059C198.018 341.325 197.941 341.637 197.935 341.997L196.846 341.98C196.854 341.426 196.99 340.942 197.252 340.528C197.514 340.113 197.867 339.792 198.311 339.565C198.757 339.339 199.256 339.23 199.807 339.238C200.361 339.247 200.85 339.372 201.274 339.612C201.698 339.853 202.028 340.174 202.265 340.575C202.502 340.976 202.617 341.419 202.609 341.905C202.603 342.253 202.535 342.592 202.403 342.922C202.275 343.25 202.054 343.614 201.74 344.015C201.429 344.414 200.998 344.899 200.447 345.472L198.288 347.71L198.286 347.783L202.681 347.853L202.665 348.869L196.701 348.774ZM204.866 348.904L209.227 340.607L209.228 340.533L204.354 340.455L204.37 339.44L210.426 339.536L210.409 340.607L206.067 348.923L204.866 348.904Z" fill="#0F083B"/>
<rect x="221.731" y="324.631" width="108.243" height="37.3939" rx="10" fill="#0F083B" fill-opacity="0.07"/>
<path opacity="0.4" d="M232.924 347.647L233.074 338.194L234.219 338.212L234.144 342.902L234.255 342.904L238.576 338.281L240.072 338.305L236.034 342.507L239.922 347.758L238.537 347.736L235.32 343.29L234.117 344.601L234.069 347.666L232.924 347.647ZM243.705 347.966C243.022 347.955 242.435 347.795 241.945 347.486C241.457 347.173 241.084 346.743 240.825 346.194C240.569 345.642 240.447 345.003 240.458 344.276C240.47 343.55 240.612 342.912 240.886 342.362C241.162 341.81 241.541 341.382 242.023 341.079C242.508 340.772 243.071 340.624 243.711 340.634C244.08 340.64 244.444 340.708 244.802 340.836C245.16 340.965 245.485 341.17 245.776 341.452C246.067 341.731 246.296 342.097 246.465 342.553C246.633 343.008 246.712 343.566 246.701 344.228L246.694 344.689L241.229 344.603L241.244 343.661L245.601 343.73C245.607 343.33 245.533 342.972 245.378 342.655C245.226 342.339 245.005 342.088 244.716 341.902C244.429 341.715 244.089 341.619 243.695 341.613C243.262 341.606 242.884 341.708 242.564 341.918C242.247 342.126 242.001 342.399 241.826 342.738C241.651 343.076 241.561 343.441 241.555 343.832L241.545 344.46C241.536 344.995 241.621 345.451 241.8 345.826C241.982 346.198 242.238 346.484 242.567 346.683C242.896 346.879 243.281 346.981 243.721 346.988C244.007 346.992 244.266 346.956 244.498 346.88C244.734 346.801 244.937 346.681 245.109 346.52C245.281 346.357 245.415 346.153 245.511 345.908L246.559 346.22C246.442 346.575 246.251 346.886 245.985 347.153C245.719 347.416 245.393 347.621 245.006 347.765C244.619 347.907 244.185 347.974 243.705 347.966ZM251.179 348.085C250.514 348.074 249.944 347.908 249.469 347.587C248.994 347.265 248.631 346.827 248.382 346.272C248.132 345.717 248.013 345.086 248.024 344.378C248.035 343.658 248.178 343.025 248.451 342.478C248.728 341.928 249.107 341.502 249.589 341.199C250.074 340.892 250.636 340.744 251.276 340.754C251.775 340.762 252.223 340.862 252.62 341.053C253.017 341.244 253.341 341.507 253.591 341.844C253.841 342.18 253.993 342.57 254.048 343.015L252.958 342.997C252.88 342.673 252.7 342.384 252.418 342.13C252.139 341.873 251.759 341.741 251.279 341.733C250.855 341.727 250.481 341.831 250.157 342.048C249.837 342.261 249.584 342.567 249.399 342.964C249.217 343.358 249.122 343.823 249.114 344.358C249.105 344.906 249.184 345.384 249.35 345.793C249.519 346.202 249.76 346.522 250.073 346.751C250.39 346.981 250.763 347.099 251.194 347.106C251.477 347.111 251.735 347.065 251.967 346.971C252.2 346.876 252.397 346.737 252.56 346.555C252.723 346.373 252.841 346.153 252.912 345.896L254.002 345.913C253.934 346.331 253.775 346.705 253.527 347.037C253.282 347.366 252.959 347.625 252.559 347.816C252.162 348.003 251.702 348.093 251.179 348.085ZM256.718 343.759L256.651 348.024L255.561 348.007L255.711 338.553L256.801 338.57L256.746 342.042L256.838 342.043C257.01 341.679 257.264 341.393 257.6 341.183C257.938 340.969 258.386 340.867 258.943 340.876C259.427 340.884 259.848 340.987 260.208 341.187C260.568 341.384 260.845 341.682 261.039 342.082C261.236 342.479 261.329 342.982 261.32 343.592L261.248 348.097L260.159 348.079L260.229 343.648C260.238 343.085 260.099 342.647 259.811 342.335C259.527 342.02 259.128 341.858 258.614 341.85C258.257 341.844 257.936 341.914 257.65 342.061C257.368 342.207 257.143 342.423 256.975 342.71C256.811 342.997 256.725 343.346 256.718 343.759ZM265.325 348.328C264.876 348.32 264.469 348.229 264.106 348.054C263.742 347.876 263.455 347.624 263.245 347.297C263.035 346.968 262.933 346.572 262.941 346.111C262.947 345.704 263.032 345.376 263.196 345.127C263.36 344.874 263.577 344.677 263.848 344.537C264.118 344.396 264.415 344.293 264.739 344.228C265.066 344.159 265.395 344.106 265.725 344.068C266.157 344.019 266.506 343.983 266.775 343.96C267.046 343.933 267.244 343.886 267.368 343.817C267.495 343.748 267.56 343.626 267.563 343.451L267.564 343.414C267.571 342.958 267.452 342.602 267.207 342.346C266.964 342.09 266.592 341.958 266.091 341.95C265.571 341.942 265.161 342.049 264.862 342.272C264.563 342.495 264.352 342.735 264.228 342.991L263.199 342.606C263.391 342.178 263.642 341.846 263.954 341.611C264.269 341.373 264.61 341.209 264.977 341.119C265.348 341.027 265.712 340.983 266.069 340.989C266.297 340.993 266.558 341.025 266.853 341.085C267.15 341.142 267.436 341.255 267.711 341.426C267.988 341.597 268.216 341.851 268.396 342.189C268.575 342.528 268.66 342.979 268.651 343.542L268.577 348.213L267.488 348.196L267.503 347.236L267.448 347.235C267.371 347.387 267.246 347.55 267.07 347.723C266.895 347.895 266.664 348.041 266.376 348.16C266.087 348.278 265.737 348.334 265.325 348.328ZM265.507 347.352C265.937 347.359 266.302 347.28 266.6 347.115C266.901 346.951 267.129 346.736 267.284 346.47C267.442 346.205 267.524 345.925 267.528 345.629L267.544 344.632C267.497 344.687 267.395 344.736 267.237 344.78C267.083 344.82 266.904 344.856 266.7 344.887C266.499 344.914 266.304 344.939 266.112 344.96C265.924 344.979 265.772 344.995 265.655 345.009C265.371 345.041 265.105 345.097 264.858 345.176C264.613 345.252 264.414 345.371 264.261 345.531C264.111 345.689 264.034 345.906 264.029 346.183C264.023 346.562 264.159 346.85 264.436 347.048C264.716 347.244 265.073 347.345 265.507 347.352ZM275.675 342.822L274.692 343.083C274.633 342.919 274.545 342.759 274.427 342.604C274.313 342.445 274.155 342.313 273.953 342.208C273.752 342.104 273.492 342.049 273.175 342.044C272.742 342.037 272.378 342.131 272.086 342.327C271.797 342.519 271.65 342.767 271.645 343.072C271.64 343.343 271.735 343.558 271.93 343.718C272.124 343.878 272.43 344.014 272.847 344.125L273.895 344.401C274.527 344.564 274.995 344.807 275.301 345.129C275.607 345.448 275.756 345.855 275.748 346.351C275.742 346.757 275.619 347.118 275.38 347.434C275.144 347.751 274.817 347.998 274.399 348.176C273.98 348.354 273.496 348.439 272.945 348.43C272.222 348.419 271.626 348.252 271.157 347.931C270.688 347.609 270.395 347.146 270.278 346.541L271.316 346.299C271.409 346.682 271.591 346.971 271.861 347.166C272.135 347.361 272.495 347.463 272.942 347.47C273.449 347.478 273.854 347.376 274.156 347.166C274.461 346.952 274.616 346.693 274.621 346.388C274.625 346.142 274.542 345.934 274.372 345.766C274.203 345.594 273.94 345.463 273.584 345.374L272.407 345.079C271.76 344.915 271.287 344.669 270.987 344.341C270.691 344.01 270.547 343.599 270.554 343.11C270.561 342.71 270.679 342.358 270.908 342.054C271.141 341.75 271.454 341.513 271.848 341.344C272.244 341.175 272.692 341.094 273.19 341.102C273.892 341.113 274.44 341.276 274.836 341.59C275.234 341.904 275.514 342.315 275.675 342.822ZM277.357 348.352L277.469 341.262L278.558 341.28L278.446 348.37L277.357 348.352ZM278.042 340.089C277.829 340.086 277.647 340.011 277.496 339.864C277.347 339.717 277.275 339.542 277.278 339.339C277.281 339.135 277.359 338.963 277.512 338.821C277.668 338.678 277.853 338.609 278.065 338.612C278.277 338.616 278.458 338.691 278.606 338.838C278.758 338.985 278.832 339.16 278.829 339.363C278.826 339.566 278.746 339.739 278.59 339.881C278.437 340.023 278.254 340.093 278.042 340.089ZM287.552 339.058L287.402 348.512L286.257 348.493L286.388 340.24L286.333 340.239L284 341.735L284.019 340.572L286.407 339.04L287.552 339.058ZM293.313 348.735C292.703 348.725 292.162 348.612 291.688 348.395C291.218 348.178 290.845 347.881 290.571 347.505C290.3 347.125 290.156 346.687 290.14 346.191L291.303 346.21C291.323 346.515 291.423 346.779 291.604 347.004C291.785 347.225 292.024 347.398 292.321 347.523C292.617 347.648 292.947 347.713 293.31 347.719C293.717 347.725 294.078 347.66 294.394 347.524C294.71 347.387 294.959 347.194 295.142 346.945C295.324 346.695 295.418 346.404 295.423 346.072C295.429 345.724 295.348 345.417 295.18 345.149C295.011 344.879 294.762 344.665 294.432 344.509C294.103 344.353 293.698 344.271 293.217 344.264L292.46 344.252L292.477 343.236L293.234 343.248C293.609 343.254 293.939 343.192 294.225 343.061C294.513 342.93 294.739 342.743 294.903 342.499C295.07 342.256 295.156 341.968 295.161 341.635C295.166 341.315 295.1 341.036 294.962 340.796C294.825 340.557 294.627 340.369 294.371 340.233C294.118 340.097 293.817 340.026 293.469 340.02C293.143 340.015 292.835 340.07 292.543 340.186C292.255 340.298 292.019 340.465 291.834 340.687C291.649 340.905 291.546 341.172 291.526 341.485L290.418 341.468C290.444 340.973 290.6 340.541 290.886 340.173C291.172 339.802 291.543 339.516 291.999 339.314C292.457 339.111 292.959 339.015 293.504 339.023C294.088 339.033 294.588 339.159 295.003 339.403C295.418 339.643 295.734 339.958 295.953 340.346C296.171 340.734 296.277 341.151 296.27 341.597C296.262 342.13 296.114 342.581 295.828 342.952C295.546 343.324 295.164 343.578 294.685 343.715L294.684 343.788C295.279 343.896 295.742 344.158 296.071 344.572C296.4 344.984 296.559 345.49 296.55 346.09C296.542 346.604 296.394 347.063 296.108 347.468C295.824 347.87 295.441 348.184 294.957 348.41C294.473 348.636 293.925 348.744 293.313 348.735ZM302.56 343.516L302.544 344.532L298.408 344.466L298.425 343.451L302.56 343.516ZM303.931 348.774L303.945 347.943L307.119 344.577C307.492 344.183 307.799 343.84 308.04 343.548C308.282 343.253 308.462 342.976 308.58 342.716C308.701 342.453 308.764 342.177 308.768 341.888C308.774 341.556 308.698 341.267 308.542 341.021C308.389 340.775 308.177 340.584 307.905 340.448C307.633 340.311 307.326 340.24 306.985 340.235C306.622 340.229 306.304 340.299 306.03 340.446C305.76 340.589 305.549 340.794 305.397 341.059C305.248 341.324 305.171 341.637 305.165 341.997L304.076 341.98C304.085 341.426 304.22 340.942 304.482 340.527C304.744 340.113 305.097 339.792 305.541 339.565C305.988 339.338 306.487 339.229 307.038 339.238C307.591 339.247 308.08 339.372 308.504 339.612C308.929 339.853 309.259 340.174 309.496 340.575C309.733 340.975 309.847 341.419 309.839 341.905C309.834 342.253 309.765 342.592 309.634 342.922C309.506 343.249 309.284 343.614 308.97 344.015C308.659 344.413 308.228 344.899 307.677 345.472L305.518 347.709L305.517 347.783L309.911 347.853L309.895 348.868L303.931 348.774ZM314.883 349.077C314.187 349.066 313.598 348.867 313.115 348.481C312.632 348.092 312.266 347.533 312.019 346.806C311.772 346.076 311.657 345.197 311.673 344.169C311.69 343.147 311.833 342.277 312.103 341.558C312.376 340.836 312.76 340.288 313.255 339.914C313.754 339.537 314.348 339.354 315.037 339.365C315.726 339.376 316.312 339.578 316.796 339.97C317.282 340.359 317.649 340.919 317.896 341.65C318.146 342.377 318.263 343.251 318.246 344.273C318.23 345.301 318.087 346.176 317.817 346.898C317.547 347.617 317.164 348.163 316.669 348.537C316.174 348.908 315.578 349.088 314.883 349.077ZM314.899 348.061C315.588 348.072 316.129 347.748 316.521 347.09C316.913 346.431 317.119 345.486 317.139 344.256C317.152 343.437 317.075 342.739 316.909 342.16C316.745 341.582 316.503 341.14 316.182 340.833C315.863 340.526 315.477 340.369 315.021 340.362C314.338 340.351 313.799 340.68 313.403 341.348C313.008 342.012 312.801 342.959 312.781 344.186C312.768 345.005 312.843 345.702 313.007 346.277C313.17 346.852 313.411 347.291 313.729 347.595C314.05 347.899 314.44 348.054 314.899 348.061Z" fill="#0F083B"/>
<path d="M119.733 98.2346L115.433 98.1664L115.617 86.5315L119.912 86.5996C121.098 86.6184 122.115 86.8675 122.963 87.347C123.816 87.8227 124.468 88.4998 124.92 89.3783C125.372 90.253 125.588 91.2944 125.569 92.5026C125.55 93.7146 125.301 94.7524 124.821 95.6161C124.345 96.4799 123.674 97.1379 122.806 97.5901C121.939 98.0385 120.915 98.2534 119.733 98.2346ZM118.283 95.8136L119.663 95.8355C120.315 95.8458 120.868 95.7447 121.322 95.5322C121.78 95.3159 122.128 94.9597 122.367 94.4634C122.61 93.9634 122.738 93.2949 122.751 92.4579C122.765 91.6209 122.658 90.9524 122.431 90.4526C122.204 89.9489 121.863 89.5836 121.408 89.3566C120.957 89.126 120.399 89.0054 119.732 88.9948L118.391 88.9735L118.283 95.8136ZM132.808 94.6745L132.887 89.7149L135.659 89.7589L135.521 98.4851L132.874 98.4431L132.899 96.8183L132.809 96.8168C132.607 97.3478 132.271 97.7667 131.8 98.0737C131.333 98.377 130.772 98.5234 130.117 98.513C129.522 98.5035 129.001 98.3589 128.555 98.0791C128.109 97.7992 127.764 97.413 127.522 96.9205C127.28 96.4242 127.162 95.8465 127.169 95.1874L127.257 89.6256L130.035 89.6697L129.956 94.6861C129.952 95.1596 130.071 95.5346 130.313 95.8112C130.555 96.0878 130.888 96.2295 131.312 96.2362C131.588 96.2406 131.837 96.1839 132.059 96.0662C132.284 95.9448 132.463 95.7677 132.596 95.5349C132.732 95.2984 132.803 95.0116 132.808 94.6745ZM145.004 92.5722L142.452 92.5999C142.428 92.4177 142.359 92.2556 142.244 92.1136C142.129 91.9678 141.977 91.8537 141.789 91.7711C141.605 91.6849 141.389 91.6398 141.143 91.6359C140.821 91.6308 140.546 91.6908 140.316 91.816C140.091 91.9412 139.978 92.1137 139.979 92.3334C139.972 92.5038 140.038 92.6526 140.176 92.7798C140.318 92.907 140.572 93.0115 140.938 93.093L142.615 93.4379C143.483 93.6183 144.127 93.9051 144.545 94.2981C144.966 94.6912 145.174 95.206 145.168 95.8423C145.155 96.4406 144.968 96.9586 144.609 97.3961C144.254 97.8337 143.771 98.1708 143.161 98.4074C142.551 98.6402 141.856 98.7504 141.076 98.738C139.83 98.7182 138.851 98.447 138.14 97.9243C137.432 97.3978 137.034 96.702 136.945 95.8369L139.69 95.8122C139.746 96.1313 139.899 96.3762 140.15 96.5469C140.402 96.7176 140.724 96.806 141.118 96.8123C141.474 96.8179 141.765 96.7562 141.99 96.6272C142.216 96.4982 142.332 96.3239 142.34 96.1043C142.339 95.9073 142.254 95.7487 142.086 95.6286C141.917 95.5047 141.652 95.4058 141.289 95.3318L139.771 95.018C138.899 94.845 138.252 94.5411 137.831 94.1064C137.41 93.6678 137.206 93.1153 137.221 92.4488C137.226 91.8654 137.389 91.3699 137.71 90.962C138.031 90.5504 138.483 90.2393 139.066 90.0289C139.649 89.8184 140.334 89.7194 141.122 89.7319C142.304 89.7506 143.232 90.0135 143.906 90.5205C144.579 91.0236 144.946 91.7076 145.004 92.5722ZM149.348 93.7265L149.269 98.7032L146.491 98.6591L146.676 87.0242L149.363 87.0668L149.291 91.5776L149.388 91.5792C149.594 91.0445 149.922 90.6292 150.374 90.3333C150.829 90.0374 151.383 89.8947 152.034 89.905C152.648 89.9147 153.18 90.0596 153.63 90.3395C154.08 90.6156 154.426 91.0018 154.668 91.4981C154.914 91.9945 155.03 92.5722 155.016 93.2311L154.928 98.7929L152.15 98.7489L152.229 93.7324C152.241 93.2477 152.126 92.8671 151.884 92.5905C151.642 92.3139 151.297 92.172 150.851 92.1649C150.559 92.1603 150.3 92.2206 150.075 92.3458C149.853 92.4673 149.678 92.6445 149.549 92.8773C149.424 93.1102 149.357 93.3933 149.348 93.7265ZM159.119 99.0072C158.563 98.9983 158.07 98.8977 157.641 98.7053C157.216 98.5091 156.882 98.2197 156.638 97.837C156.398 97.4506 156.282 96.9695 156.291 96.3938C156.299 95.909 156.391 95.5013 156.566 95.1707C156.742 94.8402 156.981 94.5731 157.284 94.3695C157.586 94.166 157.933 94.0143 158.325 93.9144C158.717 93.8107 159.135 93.7435 159.578 93.7127C160.075 93.6751 160.476 93.6341 160.779 93.5896C161.083 93.5414 161.304 93.4711 161.442 93.3785C161.584 93.2823 161.656 93.1452 161.659 92.9672L161.659 92.9387C161.664 92.6471 161.567 92.4202 161.369 92.2579C161.171 92.0957 160.901 92.0118 160.56 92.0064C160.193 92.0006 159.896 92.0754 159.67 92.231C159.444 92.3865 159.299 92.6039 159.234 92.8832L156.673 92.7517C156.757 92.2226 156.96 91.7523 157.281 91.3407C157.605 90.9253 158.046 90.6027 158.603 90.3729C159.164 90.1393 159.834 90.0287 160.614 90.0411C161.171 90.05 161.683 90.1244 162.151 90.2644C162.618 90.4006 163.024 90.5965 163.369 90.852C163.713 91.1037 163.977 91.4109 164.161 91.7737C164.348 92.1366 164.438 92.5491 164.431 93.0111L164.337 98.9422L161.724 98.9007L161.743 97.685L161.675 97.6839C161.515 97.9769 161.312 98.2237 161.066 98.4244C160.825 98.6251 160.54 98.774 160.213 98.8711C159.889 98.9682 159.525 99.0136 159.119 99.0072ZM160.006 97.2028C160.305 97.2076 160.575 97.1512 160.816 97.0338C161.06 96.9165 161.256 96.7529 161.403 96.5431C161.55 96.3295 161.626 96.0807 161.631 95.7966L161.644 94.9672C161.564 95.0076 161.467 95.0439 161.353 95.0762C161.242 95.1085 161.12 95.1388 160.987 95.167C160.854 95.1952 160.718 95.2196 160.577 95.2401C160.437 95.2606 160.302 95.2793 160.173 95.2961C159.911 95.3337 159.686 95.3945 159.499 95.4787C159.316 95.5629 159.174 95.6743 159.074 95.8129C158.977 95.9477 158.927 96.1098 158.924 96.2992C158.919 96.587 159.018 96.8083 159.22 96.9631C159.426 97.1179 159.688 97.1978 160.006 97.2028ZM168.893 94.0366L168.814 99.0132L166.036 98.9692L166.174 90.243L168.816 90.2849L168.79 91.887L168.887 91.8885C169.089 91.3575 169.425 90.9443 169.895 90.6486C170.366 90.3493 170.923 90.2047 171.567 90.2149C172.181 90.2246 172.711 90.3713 173.157 90.6549C173.607 90.9348 173.953 91.323 174.196 91.8193C174.442 92.3119 174.557 92.8858 174.543 93.5409L174.455 99.1027L171.677 99.0586L171.757 94.0422C171.768 93.5575 171.651 93.1768 171.405 92.9002C171.163 92.6236 170.823 92.4818 170.384 92.4748C170.092 92.4702 169.833 92.5305 169.608 92.6557C169.386 92.7772 169.213 92.9544 169.088 93.1873C168.967 93.4203 168.902 93.7033 168.893 94.0366ZM176.175 99.13L176.36 87.4951L179.138 87.5392L179.068 91.942L179.125 91.9429C179.242 91.6796 179.407 91.4265 179.62 91.1836C179.836 90.9408 180.108 90.7444 180.436 90.5942C180.768 90.4404 181.163 90.3671 181.621 90.3744C182.227 90.384 182.791 90.5521 183.312 90.8785C183.838 91.2051 184.258 91.7024 184.573 92.3703C184.888 93.0383 185.038 93.8855 185.021 94.9118C185.006 95.9004 184.835 96.7254 184.511 97.387C184.189 98.0487 183.761 98.5419 183.226 98.8668C182.694 99.1917 182.106 99.3491 181.462 99.3389C181.023 99.3319 180.643 99.2539 180.324 99.1049C180.004 98.9559 179.736 98.7622 179.52 98.5239C179.308 98.2857 179.145 98.0312 179.032 97.7604L178.947 97.759L178.925 99.1736L176.175 99.13ZM178.965 94.8101C178.958 95.2797 179.014 95.6898 179.134 96.0402C179.257 96.3907 179.436 96.6644 179.672 96.8613C179.911 97.0545 180.199 97.1538 180.536 97.1592C180.877 97.1646 181.168 97.0745 181.41 96.8889C181.652 96.6995 181.836 96.4316 181.963 96.0851C182.093 95.7386 182.162 95.3306 182.17 94.8609C182.177 94.3913 182.121 93.9831 182.002 93.6365C181.886 93.2899 181.71 93.0201 181.475 92.8269C181.243 92.6338 180.954 92.5345 180.61 92.5291C180.269 92.5237 179.978 92.6119 179.736 92.7937C179.495 92.9754 179.307 93.2377 179.173 93.5803C179.042 93.9229 178.973 94.3329 178.965 94.8101ZM188.866 99.4791C188.309 99.4702 187.816 99.3696 187.387 99.1772C186.962 98.981 186.628 98.6916 186.384 98.3089C186.144 97.9225 186.028 97.4414 186.037 96.8657C186.045 96.3809 186.137 95.9732 186.313 95.6426C186.488 95.3121 186.727 95.045 187.03 94.8414C187.332 94.6379 187.68 94.4862 188.071 94.3863C188.463 94.2826 188.881 94.2154 189.325 94.1846C189.822 94.147 190.222 94.106 190.526 94.0615C190.83 94.0133 191.05 93.943 191.188 93.8504C191.33 93.7542 191.402 93.6171 191.405 93.4391L191.405 93.4106C191.41 93.119 191.313 92.8921 191.115 92.7298C190.917 92.5676 190.647 92.4837 190.306 92.4783C189.939 92.4725 189.642 92.5473 189.416 92.7029C189.19 92.8584 189.045 93.0758 188.98 93.3551L186.419 93.2236C186.503 92.6945 186.706 92.2242 187.027 91.8126C187.352 91.3972 187.792 91.0746 188.349 90.8448C188.91 90.6112 189.58 90.5006 190.36 90.513C190.917 90.5219 191.429 90.5963 191.897 90.7363C192.364 90.8725 192.77 91.0684 193.115 91.3239C193.459 91.5756 193.724 91.8828 193.907 92.2456C194.095 92.6085 194.185 93.021 194.177 93.483L194.083 99.4141L191.47 99.3726L191.489 98.1569L191.421 98.1558C191.261 98.4488 191.058 98.6956 190.813 98.8963C190.571 99.097 190.286 99.2459 189.959 99.343C189.635 99.4401 189.271 99.4855 188.866 99.4791ZM189.752 97.6747C190.052 97.6795 190.321 97.6231 190.562 97.5057C190.806 97.3884 191.002 97.2248 191.149 97.015C191.297 96.8014 191.373 96.5526 191.377 96.2685L191.39 95.4391C191.31 95.4795 191.213 95.5158 191.099 95.5481C190.988 95.5804 190.867 95.6107 190.734 95.6389C190.601 95.6671 190.464 95.6915 190.323 95.712C190.183 95.7325 190.048 95.7512 189.919 95.768C189.657 95.8056 189.433 95.8664 189.246 95.9506C189.062 96.0348 188.92 96.1462 188.82 96.2848C188.723 96.4196 188.673 96.5817 188.67 96.7711C188.665 97.0589 188.764 97.2802 188.966 97.435C189.172 97.5898 189.434 97.6697 189.752 97.6747Z" fill="#0F083B"/>
<defs>
<filter id="filter0_d_7_5390" x="0.488281" y="0.154297" width="453" height="548" filterUnits="userSpaceOnUse" color-interpolation-filters="sRGB">
<feFlood flood-opacity="0" result="BackgroundImageFix"/>
<feColorMatrix in="SourceAlpha" type="matrix" values="0 0 0 0 0 0 0 0 0 0 0 0 0 0 0 0 0 0 127 0" result="hardAlpha"/>
<feOffset dy="44"/>
<feGaussianBlur stdDeviation="37"/>
<feComposite in2="hardAlpha" operator="out"/>
<feColorMatrix type="matrix" values="0 0 0 0 0.151499 0 0 0 0 0.22347 0 0 0 0 0.408537 0 0 0 0.08 0"/>
<feBlend mode="normal" in2="BackgroundImageFix" result="effect1_dropShadow_7_5390"/>
<feBlend mode="normal" in="SourceGraphic" in2="effect1_dropShadow_7_5390" result="shape"/>
</filter>
<filter id="filter1_i_7_5390" x="137.805" y="147.301" width="67.8809" height="70.2583" filterUnits="userSpaceOnUse" color-interpolation-filters="sRGB">
<feFlood flood-opacity="0" result="BackgroundImageFix"/>
<feBlend mode="normal" in="SourceGraphic" in2="BackgroundImageFix" result="shape"/>
<feColorMatrix in="SourceAlpha" type="matrix" values="0 0 0 0 0 0 0 0 0 0 0 0 0 0 0 0 0 0 127 0" result="hardAlpha"/>
<feOffset dx="-0.135254" dy="0.135254"/>
<feGaussianBlur stdDeviation="0.0676271"/>
<feComposite in2="hardAlpha" operator="arithmetic" k2="-1" k3="1"/>
<feColorMatrix type="matrix" values="0 0 0 0 0.921569 0 0 0 0 0.47451 0 0 0 0 0.133333 0 0 0 1 0"/>
<feBlend mode="normal" in2="shape" result="effect1_innerShadow_7_5390"/>
</filter>
<filter id="filter2_i_7_5390" x="114.488" y="129.703" width="72.479" height="48.6725" filterUnits="userSpaceOnUse" color-interpolation-filters="sRGB">
<feFlood flood-opacity="0" result="BackgroundImageFix"/>
<feBlend mode="normal" in="SourceGraphic" in2="BackgroundImageFix" result="shape"/>
<feColorMatrix in="SourceAlpha" type="matrix" values="0 0 0 0 0 0 0 0 0 0 0 0 0 0 0 0 0 0 127 0" result="hardAlpha"/>
<feOffset dy="-0.450847"/>
<feGaussianBlur stdDeviation="0.450847"/>
<feComposite in2="hardAlpha" operator="arithmetic" k2="-1" k3="1"/>
<feColorMatrix type="matrix" values="0 0 0 0 0.815686 0 0 0 0 0.784314 0 0 0 0 0.956863 0 0 0 1 0"/>
<feBlend mode="normal" in2="shape" result="effect1_innerShadow_7_5390"/>
</filter>
<linearGradient id="paint0_linear_7_5390" x1="198.122" y1="151.932" x2="147.639" y2="214.157" gradientUnits="userSpaceOnUse">
<stop stop-color="#FC8B23"/>
<stop offset="1" stop-color="#E67639"/>
</linearGradient>
<radialGradient id="paint1_radial_7_5390" cx="0" cy="0" r="1" gradientUnits="userSpaceOnUse" gradientTransform="translate(179.962 140.74) rotate(137.171) scale(12.1017 10.7117)">
<stop offset="0.3" stop-color="#FFA13A"/>
<stop offset="1" stop-color="#FFA13A" stop-opacity="0"/>
</radialGradient>
<radialGradient id="paint2_radial_7_5390" cx="0" cy="0" r="1" gradientUnits="userSpaceOnUse" gradientTransform="translate(148.963 136.848) rotate(68.4935) scale(19.5115 16.7912)">
<stop offset="0.3" stop-color="#FF942A"/>
<stop offset="1" stop-color="#FF942A" stop-opacity="0"/>
</radialGradient>
<radialGradient id="paint3_radial_7_5390" cx="0" cy="0" r="1" gradientUnits="userSpaceOnUse" gradientTransform="translate(199.83 155.135) rotate(-164.236) scale(7.57038 10.7966)">
<stop offset="0.3" stop-color="#FFA13D"/>
<stop offset="1" stop-color="#FFA13D" stop-opacity="0"/>
</radialGradient>
<radialGradient id="paint4_radial_7_5390" cx="0" cy="0" r="1" gradientUnits="userSpaceOnUse" gradientTransform="translate(215.065 166.52) rotate(153.412) scale(13.4799 10.1676)">
<stop offset="0.3" stop-color="#FFA13D"/>
<stop offset="1" stop-color="#FFA13D" stop-opacity="0"/>
</radialGradient>
<radialGradient id="paint5_radial_7_5390" cx="0" cy="0" r="1" gradientUnits="userSpaceOnUse" gradientTransform="translate(217.98 189.962) rotate(-173.149) scale(14.943 8.70807)">
<stop offset="0.3" stop-color="#FFA13D"/>
<stop offset="1" stop-color="#FFA13D" stop-opacity="0"/>
</radialGradient>
<radialGradient id="paint6_radial_7_5390" cx="0" cy="0" r="1" gradientUnits="userSpaceOnUse" gradientTransform="translate(204.603 207.925) rotate(-44.9517) scale(13.7792 13.2833)">
<stop stop-color="#E0762A"/>
<stop offset="1" stop-color="#E0762A" stop-opacity="0"/>
</radialGradient>
<radialGradient id="paint7_radial_7_5390" cx="0" cy="0" r="1" gradientUnits="userSpaceOnUse" gradientTransform="translate(141.813 204.635) rotate(-126.795) scale(10.6159 10.1336)">
<stop stop-color="#E0762A"/>
<stop offset="1" stop-color="#E0762A" stop-opacity="0"/>
</radialGradient>
<radialGradient id="paint8_radial_7_5390" cx="0" cy="0" r="1" gradientUnits="userSpaceOnUse" gradientTransform="translate(127.637 168.301) rotate(26.0489) scale(10.616 13.1104)">
<stop stop-color="#F0851D"/>
<stop offset="1" stop-color="#F0851D" stop-opacity="0"/>
</radialGradient>
<radialGradient id="paint9_radial_7_5390" cx="0" cy="0" r="1" gradientUnits="userSpaceOnUse" gradientTransform="translate(190.598 223.497) rotate(-141.529) scale(12.459 11.8526)">
<stop offset="0.337" stop-color="#E3745B"/>
<stop offset="1" stop-color="#E3745B" stop-opacity="0"/>
</radialGradient>
<radialGradient id="paint10_radial_7_5390" cx="0" cy="0" r="1" gradientUnits="userSpaceOnUse" gradientTransform="translate(191.034 162.05) rotate(116.933) scale(62.1095 75.1845)">
<stop offset="0.172" stop-color="#FFD13D"/>
<stop offset="1" stop-color="#D89A29"/>
</radialGradient>
<radialGradient id="paint11_radial_7_5390" cx="0" cy="0" r="1" gradientUnits="userSpaceOnUse" gradientTransform="translate(159.775 202.551) rotate(-139.659) scale(21.3858 18.1674)">
<stop offset="0.341" stop-color="#DCA225"/>
<stop offset="1" stop-color="#DCA225" stop-opacity="0"/>
</radialGradient>
<radialGradient id="paint12_radial_7_5390" cx="0" cy="0" r="1" gradientUnits="userSpaceOnUse" gradientTransform="translate(199.476 176.372) rotate(167.9) scale(72.2393 62.9461)">
<stop offset="0.62" stop-color="#DCA225" stop-opacity="0"/>
<stop offset="1" stop-color="#DCA225"/>
</radialGradient>
<radialGradient id="paint13_radial_7_5390" cx="0" cy="0" r="1" gradientUnits="userSpaceOnUse" gradientTransform="translate(185.493 145.767) rotate(-172.202) scale(14.3591 14.8447)">
<stop offset="0.309" stop-color="#E8E8E9"/>
<stop offset="1" stop-color="#D2D2D2"/>
</radialGradient>
<radialGradient id="paint14_radial_7_5390" cx="0" cy="0" r="1" gradientUnits="userSpaceOnUse" gradientTransform="translate(182.844 148.869) rotate(-140.274) scale(7.89858 7.28692)">
<stop stop-color="#CDCDCE"/>
<stop offset="1" stop-color="#CDCDCE" stop-opacity="0"/>
</radialGradient>
<linearGradient id="paint15_linear_7_5390" x1="158.137" y1="175.783" x2="158.137" y2="155.657" gradientUnits="userSpaceOnUse">
<stop stop-color="#DED7FA"/>
<stop offset="1" stop-color="#DED7FA" stop-opacity="0"/>
</linearGradient>
<radialGradient id="paint16_radial_7_5390" cx="0" cy="0" r="1" gradientUnits="userSpaceOnUse" gradientTransform="translate(177.585 146.367) rotate(135.513) scale(29.3536 31.5258)">
<stop offset="0.179" stop-color="#FCFBFE"/>
<stop offset="1" stop-color="#FCFBFE" stop-opacity="0"/>
</radialGradient>
<radialGradient id="paint17_radial_7_5390" cx="0" cy="0" r="1" gradientUnits="userSpaceOnUse" gradientTransform="translate(131.729 157.824) rotate(143.504) scale(17.9237 18.9819)">
<stop stop-color="#FCFBFE"/>
<stop offset="1" stop-color="#FCFBFE" stop-opacity="0"/>
</radialGradient>
<radialGradient id="paint18_radial_7_5390" cx="0" cy="0" r="1" gradientUnits="userSpaceOnUse" gradientTransform="translate(174.579 152.836) rotate(166.203) scale(61.8665 50.2403)">
<stop offset="0.815" stop-color="#CECCD7" stop-opacity="0"/>
<stop offset="1" stop-color="#CECCD7"/>
</radialGradient>
<radialGradient id="paint19_radial_7_5390" cx="0" cy="0" r="1" gradientUnits="userSpaceOnUse" gradientTransform="translate(123.931 181.105) rotate(-47.7748) scale(17.0433 23.4557)">
<stop stop-color="#D0C9EE"/>
<stop offset="1" stop-color="#D0C9EE" stop-opacity="0"/>
</radialGradient>
</defs>
</svg>
