<svg width="120" height="16" viewBox="0 0 120 16" fill="none" xmlns="http://www.w3.org/2000/svg">
<g clip-path="url(#clip0_7_5317)">
<path d="M8 0.25C3.7185 0.25 0.25 3.719 0.25 8C0.25 12.281 3.719 15.75 8 15.75C12.2815 15.75 15.75 12.281 15.75 8C15.75 3.719 12.281 0.25 8 0.25ZM11.8065 5.5595L10.5345 11.5535C10.4405 11.9785 10.1875 12.0815 9.8345 11.8815L7.897 10.4535L6.9625 11.3535C6.8595 11.4565 6.772 11.544 6.572 11.544L6.7095 9.572L10.3 6.328C10.4565 6.1905 10.2655 6.1125 10.059 6.25L5.6215 9.0435L3.709 8.4465C3.2935 8.3155 3.284 8.031 3.7965 7.831L11.2685 4.9495C11.6155 4.8245 11.9185 5.034 11.806 5.559L11.8065 5.5595Z" fill="white"/>
</g>
<path d="M36 8C36 8.39556 35.8827 8.78224 35.6629 9.11114C35.4432 9.44004 35.1308 9.69638 34.7654 9.84776C34.3999 9.99913 33.9978 10.0387 33.6098 9.96157C33.2219 9.8844 32.8655 9.69392 32.5858 9.41421C32.3061 9.13451 32.1156 8.77814 32.0384 8.39018C31.9613 8.00222 32.0009 7.60009 32.1522 7.23463C32.3036 6.86918 32.56 6.55682 32.8889 6.33706C33.2178 6.1173 33.6044 6 34 6C34.5299 6.00165 35.0377 6.21289 35.4124 6.58761C35.7871 6.96232 35.9984 7.47007 36 8ZM40.25 5.25V10.75C40.25 11.6783 39.8813 12.5685 39.2249 13.2249C38.5685 13.8813 37.6783 14.25 36.75 14.25H31.25C30.3217 14.25 29.4315 13.8813 28.7751 13.2249C28.1187 12.5685 27.75 11.6783 27.75 10.75V5.25C27.75 4.32174 28.1187 3.4315 28.7751 2.77513C29.4315 2.11875 30.3217 1.75 31.25 1.75H36.75C37.6783 1.75 38.5685 2.11875 39.2249 2.77513C39.8813 3.4315 40.25 4.32174 40.25 5.25ZM37 8C37 7.40666 36.8241 6.82664 36.4944 6.33329C36.1648 5.83994 35.6962 5.45542 35.1481 5.22836C34.5999 5.0013 33.9967 4.94189 33.4147 5.05764C32.8328 5.1734 32.2982 5.45912 31.8787 5.87868C31.4591 6.29824 31.1734 6.83279 31.0576 7.41473C30.9419 7.99667 31.0013 8.59987 31.2284 9.14805C31.4554 9.69623 31.8399 10.1648 32.3333 10.4944C32.8266 10.8241 33.4067 11 34 11C34.7956 11 35.5587 10.6839 36.1213 10.1213C36.6839 9.55871 37 8.79565 37 8ZM38 4.75C38 4.60166 37.956 4.45666 37.8736 4.33332C37.7912 4.20999 37.6741 4.11386 37.537 4.05709C37.4 4.00032 37.2492 3.98547 37.1037 4.01441C36.9582 4.04335 36.8246 4.11478 36.7197 4.21967C36.6148 4.32456 36.5434 4.4582 36.5144 4.60368C36.4855 4.74917 36.5003 4.89997 36.5571 5.03701C36.6139 5.17406 36.71 5.29119 36.8333 5.3736C36.9567 5.45601 37.1017 5.5 37.25 5.5C37.4489 5.5 37.6397 5.42098 37.7803 5.28033C37.921 5.13968 38 4.94891 38 4.75Z" fill="white"/>
<path d="M60 1.83984C52.1376 1.83984 52 2.53904 52 7.99984C52 13.4606 52.1376 14.1598 60 14.1598C67.8624 14.1598 68 13.4606 68 7.99984C68 2.53904 67.8624 1.83984 60 1.83984ZM62.564 8.26704L58.972 9.94384C58.6576 10.0894 58.4 9.92624 58.4 9.57904V6.42064C58.4 6.07424 58.6576 5.91024 58.972 6.05584L62.564 7.73264C62.8784 7.87984 62.8784 8.11984 62.564 8.26704Z" fill="white"/>
<path d="M93.7623 3.29171C93.2057 3.53838 92.6077 3.70504 91.979 3.78038C92.6277 3.39224 93.113 2.78135 93.3443 2.06171C92.7349 2.4237 92.0679 2.67851 91.3723 2.81504C90.9046 2.31562 90.285 1.98459 89.6099 1.87336C88.9347 1.76212 88.2417 1.8769 87.6385 2.19988C87.0353 2.52285 86.5555 3.03595 86.2738 3.65951C85.992 4.28307 85.924 4.98221 86.0803 5.64838C84.8455 5.58637 83.6374 5.26541 82.5346 4.70631C81.4318 4.14722 80.4589 3.36248 79.679 2.40304C79.4123 2.86304 79.259 3.39638 79.259 3.96438C79.2587 4.47571 79.3846 4.9792 79.6256 5.4302C79.8665 5.88119 80.2151 6.26574 80.6403 6.54971C80.1472 6.53402 79.6649 6.40077 79.2337 6.16104V6.20104C79.2336 6.9182 79.4817 7.6133 79.9358 8.16837C80.3899 8.72345 81.022 9.10433 81.725 9.24638C81.2675 9.37019 80.7879 9.38842 80.3223 9.29971C80.5207 9.91679 80.907 10.4564 81.4272 10.843C81.9475 11.2296 82.5756 11.4438 83.2237 11.4557C82.1236 12.3193 80.7649 12.7878 79.3663 12.7857C79.1186 12.7858 78.8711 12.7713 78.625 12.7424C80.0447 13.6552 81.6972 14.1396 83.385 14.1377C89.0983 14.1377 92.2217 9.40571 92.2217 5.30171C92.2217 5.16838 92.2183 5.03371 92.2123 4.90038C92.8199 4.46103 93.3443 3.91697 93.761 3.29371L93.7623 3.29171Z" fill="white"/>
<g clip-path="url(#clip1_7_5317)">
<path d="M119.75 8C119.75 3.71875 116.281 0.25 112 0.25C107.719 0.25 104.25 3.71875 104.25 8C104.25 11.8681 107.084 15.0744 110.789 15.6562V10.2403H108.82V8H110.789V6.2925C110.789 4.35031 111.945 3.2775 113.716 3.2775C114.564 3.2775 115.451 3.42875 115.451 3.42875V5.335H114.474C113.511 5.335 113.211 5.9325 113.211 6.54531V8H115.36L115.017 10.2403H113.211V15.6562C116.916 15.0744 119.75 11.8681 119.75 8Z" fill="white"/>
</g>
<defs>
<clipPath id="clip0_7_5317">
<rect width="16" height="16" fill="white"/>
</clipPath>
<clipPath id="clip1_7_5317">
<rect width="16" height="16" fill="white" transform="translate(104)"/>
</clipPath>
</defs>
</svg>
